# xmcd
#
# Track frame offsets: 
#        150
#        11645
#        23730
#        37175
#        49172
#        59320
#        74747
#        85302
#        97497
#        111129
#
# Disc length: 1681 seconds
#
# Revision: 3
# Processed by: cddbd v1.5.2PL0 Copyright (c) Steve Scherf et al.
# Submitted via: ExactAudioCopy v1.3
#
DISCID=90068f0a
DTITLE=The Kendalls - The Hits
DYEAR=1982
DGENRE=Country
TTITLE0=Heaven's Just A Sin Away
TTITLE1=It Don't Feel Like Sinnin' To Me
TTITLE2=Pittsburgh Stealers
TTITLE3=Sweet Desire
TTITLE4=I Had A Lovely Time
TTITLE5=Just Like Real People
TTITLE6=You'd Make An Angel Wanna' Cheat
TTITLE7=I'm Already Blue
TTITLE8=Thank God For The Radio
TTITLE9=If You Let Him Drive You Crazy
EXTD=
EXTT0=
EXTT1=
EXTT2=
EXTT3=
EXTT4=
EXTT5=
EXTT6=
EXTT7=
EXTT8=
EXTT9=
PLAYORDER=
